G04 #@! TF.GenerationSoftware,KiCad,Pcbnew,(5.1.2)-1*
G04 #@! TF.CreationDate,2019-11-28T20:43:11+01:00*
G04 #@! TF.ProjectId,usbled,7573626c-6564-42e6-9b69-6361645f7063,rev?*
G04 #@! TF.SameCoordinates,PX60c62b8PY5e94a58*
G04 #@! TF.FileFunction,Soldermask,Bot*
G04 #@! TF.FilePolarity,Negative*
%FSLAX46Y46*%
G04 Gerber Fmt 4.6, Leading zero omitted, Abs format (unit mm)*
G04 Created by KiCad (PCBNEW (5.1.2)-1) date 2019-11-28 20:43:11*
%MOMM*%
%LPD*%
G04 APERTURE LIST*
%ADD10C,0.100000*%
G04 APERTURE END LIST*
D10*
G36*
X53127395Y5274454D02*
G01*
X53300466Y5202766D01*
X53300467Y5202765D01*
X53456227Y5098690D01*
X53588690Y4966227D01*
X53588691Y4966225D01*
X53692766Y4810466D01*
X53764454Y4637395D01*
X53801000Y4453667D01*
X53801000Y4266333D01*
X53764454Y4082605D01*
X53692766Y3909534D01*
X53692765Y3909533D01*
X53588690Y3753773D01*
X53456227Y3621310D01*
X53377818Y3568919D01*
X53300466Y3517234D01*
X53127395Y3445546D01*
X52943667Y3409000D01*
X52756333Y3409000D01*
X52572605Y3445546D01*
X52399534Y3517234D01*
X52322182Y3568919D01*
X52243773Y3621310D01*
X52111310Y3753773D01*
X52007235Y3909533D01*
X52007234Y3909534D01*
X51935546Y4082605D01*
X51899000Y4266333D01*
X51899000Y4453667D01*
X51935546Y4637395D01*
X52007234Y4810466D01*
X52111309Y4966225D01*
X52111310Y4966227D01*
X52243773Y5098690D01*
X52399533Y5202765D01*
X52399534Y5202766D01*
X52572605Y5274454D01*
X52756333Y5311000D01*
X52943667Y5311000D01*
X53127395Y5274454D01*
X53127395Y5274454D01*
G37*
G36*
X23127395Y5274454D02*
G01*
X23300466Y5202766D01*
X23300467Y5202765D01*
X23456227Y5098690D01*
X23588690Y4966227D01*
X23588691Y4966225D01*
X23692766Y4810466D01*
X23764454Y4637395D01*
X23801000Y4453667D01*
X23801000Y4266333D01*
X23764454Y4082605D01*
X23692766Y3909534D01*
X23692765Y3909533D01*
X23588690Y3753773D01*
X23456227Y3621310D01*
X23377818Y3568919D01*
X23300466Y3517234D01*
X23127395Y3445546D01*
X22943667Y3409000D01*
X22756333Y3409000D01*
X22572605Y3445546D01*
X22399534Y3517234D01*
X22322182Y3568919D01*
X22243773Y3621310D01*
X22111310Y3753773D01*
X22007235Y3909533D01*
X22007234Y3909534D01*
X21935546Y4082605D01*
X21899000Y4266333D01*
X21899000Y4453667D01*
X21935546Y4637395D01*
X22007234Y4810466D01*
X22111309Y4966225D01*
X22111310Y4966227D01*
X22243773Y5098690D01*
X22399533Y5202765D01*
X22399534Y5202766D01*
X22572605Y5274454D01*
X22756333Y5311000D01*
X22943667Y5311000D01*
X23127395Y5274454D01*
X23127395Y5274454D01*
G37*
G36*
X83127395Y5274454D02*
G01*
X83300466Y5202766D01*
X83300467Y5202765D01*
X83456227Y5098690D01*
X83588690Y4966227D01*
X83588691Y4966225D01*
X83692766Y4810466D01*
X83764454Y4637395D01*
X83801000Y4453667D01*
X83801000Y4266333D01*
X83764454Y4082605D01*
X83692766Y3909534D01*
X83692765Y3909533D01*
X83588690Y3753773D01*
X83456227Y3621310D01*
X83377818Y3568919D01*
X83300466Y3517234D01*
X83127395Y3445546D01*
X82943667Y3409000D01*
X82756333Y3409000D01*
X82572605Y3445546D01*
X82399534Y3517234D01*
X82322182Y3568919D01*
X82243773Y3621310D01*
X82111310Y3753773D01*
X82007235Y3909533D01*
X82007234Y3909534D01*
X81935546Y4082605D01*
X81899000Y4266333D01*
X81899000Y4453667D01*
X81935546Y4637395D01*
X82007234Y4810466D01*
X82111309Y4966225D01*
X82111310Y4966227D01*
X82243773Y5098690D01*
X82399533Y5202765D01*
X82399534Y5202766D01*
X82572605Y5274454D01*
X82756333Y5311000D01*
X82943667Y5311000D01*
X83127395Y5274454D01*
X83127395Y5274454D01*
G37*
G36*
X83801000Y5949000D02*
G01*
X81899000Y5949000D01*
X81899000Y7851000D01*
X83801000Y7851000D01*
X83801000Y5949000D01*
X83801000Y5949000D01*
G37*
G36*
X53801000Y5949000D02*
G01*
X51899000Y5949000D01*
X51899000Y7851000D01*
X53801000Y7851000D01*
X53801000Y5949000D01*
X53801000Y5949000D01*
G37*
G36*
X23801000Y5949000D02*
G01*
X21899000Y5949000D01*
X21899000Y7851000D01*
X23801000Y7851000D01*
X23801000Y5949000D01*
X23801000Y5949000D01*
G37*
G36*
X23079487Y11151004D02*
G01*
X23316253Y11052932D01*
X23316255Y11052931D01*
X23529339Y10910553D01*
X23710553Y10729339D01*
X23852932Y10516253D01*
X23951004Y10279487D01*
X24001000Y10028139D01*
X24001000Y9771861D01*
X23951004Y9520513D01*
X23852932Y9283747D01*
X23852931Y9283745D01*
X23710553Y9070661D01*
X23529339Y8889447D01*
X23316255Y8747069D01*
X23316254Y8747068D01*
X23316253Y8747068D01*
X23079487Y8648996D01*
X22828139Y8599000D01*
X22571861Y8599000D01*
X22320513Y8648996D01*
X22083747Y8747068D01*
X22083746Y8747068D01*
X22083745Y8747069D01*
X21870661Y8889447D01*
X21689447Y9070661D01*
X21547069Y9283745D01*
X21547068Y9283747D01*
X21448996Y9520513D01*
X21399000Y9771861D01*
X21399000Y10028139D01*
X21448996Y10279487D01*
X21547068Y10516253D01*
X21689447Y10729339D01*
X21870661Y10910553D01*
X22083745Y11052931D01*
X22083747Y11052932D01*
X22320513Y11151004D01*
X22571861Y11201000D01*
X22828139Y11201000D01*
X23079487Y11151004D01*
X23079487Y11151004D01*
G37*
G36*
X53079487Y11151004D02*
G01*
X53316253Y11052932D01*
X53316255Y11052931D01*
X53529339Y10910553D01*
X53710553Y10729339D01*
X53852932Y10516253D01*
X53951004Y10279487D01*
X54001000Y10028139D01*
X54001000Y9771861D01*
X53951004Y9520513D01*
X53852932Y9283747D01*
X53852931Y9283745D01*
X53710553Y9070661D01*
X53529339Y8889447D01*
X53316255Y8747069D01*
X53316254Y8747068D01*
X53316253Y8747068D01*
X53079487Y8648996D01*
X52828139Y8599000D01*
X52571861Y8599000D01*
X52320513Y8648996D01*
X52083747Y8747068D01*
X52083746Y8747068D01*
X52083745Y8747069D01*
X51870661Y8889447D01*
X51689447Y9070661D01*
X51547069Y9283745D01*
X51547068Y9283747D01*
X51448996Y9520513D01*
X51399000Y9771861D01*
X51399000Y10028139D01*
X51448996Y10279487D01*
X51547068Y10516253D01*
X51689447Y10729339D01*
X51870661Y10910553D01*
X52083745Y11052931D01*
X52083747Y11052932D01*
X52320513Y11151004D01*
X52571861Y11201000D01*
X52828139Y11201000D01*
X53079487Y11151004D01*
X53079487Y11151004D01*
G37*
G36*
X83079487Y11151004D02*
G01*
X83316253Y11052932D01*
X83316255Y11052931D01*
X83529339Y10910553D01*
X83710553Y10729339D01*
X83852932Y10516253D01*
X83951004Y10279487D01*
X84001000Y10028139D01*
X84001000Y9771861D01*
X83951004Y9520513D01*
X83852932Y9283747D01*
X83852931Y9283745D01*
X83710553Y9070661D01*
X83529339Y8889447D01*
X83316255Y8747069D01*
X83316254Y8747068D01*
X83316253Y8747068D01*
X83079487Y8648996D01*
X82828139Y8599000D01*
X82571861Y8599000D01*
X82320513Y8648996D01*
X82083747Y8747068D01*
X82083746Y8747068D01*
X82083745Y8747069D01*
X81870661Y8889447D01*
X81689447Y9070661D01*
X81547069Y9283745D01*
X81547068Y9283747D01*
X81448996Y9520513D01*
X81399000Y9771861D01*
X81399000Y10028139D01*
X81448996Y10279487D01*
X81547068Y10516253D01*
X81689447Y10729339D01*
X81870661Y10910553D01*
X82083745Y11052931D01*
X82083747Y11052932D01*
X82320513Y11151004D01*
X82571861Y11201000D01*
X82828139Y11201000D01*
X83079487Y11151004D01*
X83079487Y11151004D01*
G37*
M02*
