G04 #@! TF.GenerationSoftware,KiCad,Pcbnew,(5.1.2)-1*
G04 #@! TF.CreationDate,2019-11-28T20:43:11+01:00*
G04 #@! TF.ProjectId,usbled,7573626c-6564-42e6-9b69-6361645f7063,rev?*
G04 #@! TF.SameCoordinates,PX60c62b8PY5e94a58*
G04 #@! TF.FileFunction,Other,ECO2*
%FSLAX46Y46*%
G04 Gerber Fmt 4.6, Leading zero omitted, Abs format (unit mm)*
G04 Created by KiCad (PCBNEW (5.1.2)-1) date 2019-11-28 20:43:11*
%MOMM*%
%LPD*%
G04 APERTURE LIST*
%ADD10C,0.200000*%
G04 APERTURE END LIST*
D10*
X60025000Y12175000D02*
X60025000Y175000D01*
X30025000Y12175000D02*
X30025000Y175000D01*
X85025000Y7925000D02*
X85025000Y3425000D01*
X55025000Y7925000D02*
X55025000Y3425000D01*
X83775000Y3425000D02*
X83775000Y7925000D01*
X53775000Y3425000D02*
X53775000Y7925000D01*
X61525000Y12175000D02*
X60025000Y12175000D01*
X31525000Y12175000D02*
X30025000Y12175000D01*
X85025000Y3425000D02*
X83775000Y3425000D01*
X55025000Y3425000D02*
X53775000Y3425000D01*
X61525000Y175000D02*
X61525000Y12175000D01*
X31525000Y175000D02*
X31525000Y12175000D01*
X60025000Y175000D02*
X61525000Y175000D01*
X30025000Y175000D02*
X31525000Y175000D01*
X83775000Y7925000D02*
X85025000Y7925000D01*
X53775000Y7925000D02*
X55025000Y7925000D01*
X1525000Y175000D02*
X1525000Y12175000D01*
X23775000Y3425000D02*
X23775000Y7925000D01*
X25025000Y3425000D02*
X23775000Y3425000D01*
X25025000Y7925000D02*
X25025000Y3425000D01*
X23775000Y7925000D02*
X25025000Y7925000D01*
X1525000Y12175000D02*
X25000Y12175000D01*
X25000Y175000D02*
X1525000Y175000D01*
X25000Y12175000D02*
X25000Y175000D01*
M02*
